<mxfile host="app.diagrams.net" modified="2023-02-23T15:12:48.927Z" agent="5.0 (Windows NT 10.0; Win64; x64) AppleWebKit/537.36 (KHTML, like Gecko) Chrome/110.0.0.0 Safari/537.36" etag="UgN9v3RBxU2cnlEf6OCr" version="20.8.23" type="github">
  <diagram name="Page-1" id="tiRtrdZp1hIeL0sHMyO_">
    <mxGraphModel dx="2415" dy="1500" grid="1" gridSize="10" guides="1" tooltips="1" connect="1" arrows="1" fold="1" page="1" pageScale="1" pageWidth="827" pageHeight="1169" math="0" shadow="0">
      <root>
        <mxCell id="0" />
        <mxCell id="1" parent="0" />
        <mxCell id="tGghNo-WIGV3NSE3Wc5t-3" value="Warehouse stock" style="rounded=1;whiteSpace=wrap;html=1;fontSize=14;" parent="1" vertex="1">
          <mxGeometry x="384" y="400" width="120" height="60" as="geometry" />
        </mxCell>
        <mxCell id="tGghNo-WIGV3NSE3Wc5t-4" value="Make order" style="rounded=1;whiteSpace=wrap;html=1;fontSize=14;" parent="1" vertex="1">
          <mxGeometry x="-95" y="317.5" width="95" height="55" as="geometry" />
        </mxCell>
        <mxCell id="tGghNo-WIGV3NSE3Wc5t-7" value="&lt;span style=&quot;font-size: 14px;&quot; id=&quot;docs-internal-guid-1d324e2a-7fff-3c94-8775-5019940d7010&quot;&gt;&lt;span style=&quot;font-size: 14px; font-family: Arial; color: rgb(0, 0, 0); background-color: transparent; font-style: normal; font-variant: normal; text-decoration: none; vertical-align: baseline;&quot;&gt;Order Management System&lt;/span&gt;&lt;/span&gt;" style="text;whiteSpace=wrap;html=1;align=left;verticalAlign=middle;fontSize=14;fontStyle=1" parent="1" vertex="1">
          <mxGeometry x="32.5" y="180" width="190" height="20" as="geometry" />
        </mxCell>
        <mxCell id="tGghNo-WIGV3NSE3Wc5t-8" value="&lt;span style=&quot;font-size: 14px;&quot; id=&quot;docs-internal-guid-9415e34b-7fff-a1a2-4295-181ad273ff44&quot;&gt;&lt;span style=&quot;font-size: 14px; font-family: Arial; color: rgb(0, 0, 0); background-color: transparent; font-style: normal; font-variant: normal; text-decoration: none; vertical-align: baseline;&quot;&gt;Customer Relationship Management (CRM) System&lt;/span&gt;&lt;/span&gt;" style="text;whiteSpace=wrap;html=1;verticalAlign=middle;fontSize=14;fontStyle=1" parent="1" vertex="1">
          <mxGeometry x="1110" y="180" width="350" height="20" as="geometry" />
        </mxCell>
        <mxCell id="tGghNo-WIGV3NSE3Wc5t-9" value="&lt;span style=&quot;font-size: 14px;&quot; id=&quot;docs-internal-guid-a8fc3402-7fff-b40d-7543-340d0212bfa5&quot;&gt;&lt;span style=&quot;font-size: 14px; font-family: Arial; color: rgb(0, 0, 0); background-color: transparent; font-style: normal; font-variant: normal; text-decoration: none; vertical-align: baseline;&quot;&gt;Logistics Management System&lt;/span&gt;&lt;/span&gt;" style="text;whiteSpace=wrap;html=1;verticalAlign=middle;fontSize=14;fontStyle=1" parent="1" vertex="1">
          <mxGeometry x="869" y="180" width="210" height="20" as="geometry" />
        </mxCell>
        <mxCell id="tGghNo-WIGV3NSE3Wc5t-10" value="&lt;span style=&quot;font-size: 14px;&quot; id=&quot;docs-internal-guid-5dac52f8-7fff-e4c4-6359-efce4633b223&quot;&gt;&lt;span style=&quot;font-size: 14px; font-family: Arial; color: rgb(0, 0, 0); background-color: transparent; font-style: normal; font-variant: normal; text-decoration: none; vertical-align: baseline;&quot;&gt;Financial Management System&lt;/span&gt;&lt;/span&gt;" style="text;whiteSpace=wrap;html=1;verticalAlign=middle;fontSize=14;fontStyle=1" parent="1" vertex="1">
          <mxGeometry x="626.5" y="180" width="210" height="20" as="geometry" />
        </mxCell>
        <mxCell id="tGghNo-WIGV3NSE3Wc5t-11" value="&lt;span style=&quot;font-size: 14px;&quot; id=&quot;docs-internal-guid-6c4757c5-7fff-143b-70de-a1ef65d458ee&quot;&gt;&lt;span style=&quot;font-size: 14px; font-family: Arial; color: rgb(0, 0, 0); background-color: transparent; font-style: normal; font-variant: normal; text-decoration: none; vertical-align: baseline;&quot;&gt;Inventory Management System&lt;/span&gt;&lt;/span&gt;" style="text;whiteSpace=wrap;html=1;verticalAlign=middle;fontSize=14;fontStyle=1" parent="1" vertex="1">
          <mxGeometry x="339" y="180" width="210" height="20" as="geometry" />
        </mxCell>
        <mxCell id="tGghNo-WIGV3NSE3Wc5t-12" value="&lt;span style=&quot;font-size: 14px;&quot; id=&quot;docs-internal-guid-6c4757c5-7fff-143b-70de-a1ef65d458ee&quot;&gt;&lt;span style=&quot;font-size: 14px; font-family: Arial; color: rgb(0, 0, 0); background-color: transparent; font-style: normal; font-variant: normal; text-decoration: none; vertical-align: baseline;&quot;&gt;Customer&lt;/span&gt;&lt;/span&gt;" style="text;whiteSpace=wrap;html=1;verticalAlign=middle;align=center;fontStyle=1;fontSize=14;" parent="1" vertex="1">
          <mxGeometry x="-152.5" y="180" width="210" height="20" as="geometry" />
        </mxCell>
        <mxCell id="tGghNo-WIGV3NSE3Wc5t-14" value="Process Order" style="rounded=1;whiteSpace=wrap;html=1;fontSize=14;" parent="1" vertex="1">
          <mxGeometry x="75" y="317.5" width="105" height="55" as="geometry" />
        </mxCell>
        <mxCell id="tGghNo-WIGV3NSE3Wc5t-16" value="Supplier stock" style="rounded=1;whiteSpace=wrap;html=1;fontSize=14;" parent="1" vertex="1">
          <mxGeometry x="384" y="240" width="120" height="60" as="geometry" />
        </mxCell>
        <mxCell id="tGghNo-WIGV3NSE3Wc5t-19" value="No" style="text;html=1;strokeColor=none;fillColor=none;align=center;verticalAlign=middle;whiteSpace=wrap;rounded=0;fontSize=14;" parent="1" vertex="1">
          <mxGeometry x="304" y="400" width="60" height="30" as="geometry" />
        </mxCell>
        <mxCell id="tGghNo-WIGV3NSE3Wc5t-20" value="Yes" style="text;html=1;strokeColor=none;fillColor=none;align=center;verticalAlign=middle;whiteSpace=wrap;rounded=0;fontSize=14;" parent="1" vertex="1">
          <mxGeometry x="304" y="240" width="60" height="30" as="geometry" />
        </mxCell>
        <mxCell id="tGghNo-WIGV3NSE3Wc5t-35" style="edgeStyle=orthogonalEdgeStyle;rounded=0;orthogonalLoop=1;jettySize=auto;html=1;entryX=0;entryY=0.5;entryDx=0;entryDy=0;strokeWidth=2;fontSize=14;exitX=0.5;exitY=0;exitDx=0;exitDy=0;exitPerimeter=0;" parent="1" source="tGghNo-WIGV3NSE3Wc5t-21" target="tGghNo-WIGV3NSE3Wc5t-16" edge="1">
          <mxGeometry relative="1" as="geometry">
            <Array as="points">
              <mxPoint x="279" y="270" />
              <mxPoint x="384" y="270" />
            </Array>
          </mxGeometry>
        </mxCell>
        <mxCell id="tGghNo-WIGV3NSE3Wc5t-36" style="edgeStyle=orthogonalEdgeStyle;rounded=0;orthogonalLoop=1;jettySize=auto;html=1;entryX=0;entryY=0.5;entryDx=0;entryDy=0;strokeWidth=2;fontSize=14;exitX=0.5;exitY=1;exitDx=0;exitDy=0;exitPerimeter=0;" parent="1" source="tGghNo-WIGV3NSE3Wc5t-21" target="tGghNo-WIGV3NSE3Wc5t-3" edge="1">
          <mxGeometry relative="1" as="geometry">
            <Array as="points">
              <mxPoint x="279" y="430" />
              <mxPoint x="384" y="430" />
            </Array>
          </mxGeometry>
        </mxCell>
        <mxCell id="tGghNo-WIGV3NSE3Wc5t-21" value="Dropship" style="strokeWidth=2;html=1;shape=mxgraph.flowchart.decision;whiteSpace=wrap;fontSize=14;" parent="1" vertex="1">
          <mxGeometry x="229" y="295" width="100" height="100" as="geometry" />
        </mxCell>
        <mxCell id="tGghNo-WIGV3NSE3Wc5t-26" value="" style="endArrow=none;html=1;rounded=0;fontSize=14;strokeWidth=2;entryX=0;entryY=0.5;entryDx=0;entryDy=0;entryPerimeter=0;exitX=1;exitY=0.5;exitDx=0;exitDy=0;" parent="1" source="tGghNo-WIGV3NSE3Wc5t-14" target="tGghNo-WIGV3NSE3Wc5t-21" edge="1">
          <mxGeometry width="50" height="50" relative="1" as="geometry">
            <mxPoint x="160" y="345" as="sourcePoint" />
            <mxPoint x="270" y="400" as="targetPoint" />
          </mxGeometry>
        </mxCell>
        <mxCell id="tGghNo-WIGV3NSE3Wc5t-38" value="" style="endArrow=none;html=1;rounded=0;strokeWidth=2;fontSize=14;entryX=1;entryY=0.5;entryDx=0;entryDy=0;exitX=0;exitY=0.5;exitDx=0;exitDy=0;" parent="1" source="tGghNo-WIGV3NSE3Wc5t-14" target="tGghNo-WIGV3NSE3Wc5t-4" edge="1">
          <mxGeometry width="50" height="50" relative="1" as="geometry">
            <mxPoint x="400" y="380" as="sourcePoint" />
            <mxPoint x="450" y="330" as="targetPoint" />
          </mxGeometry>
        </mxCell>
        <mxCell id="st654b6HjIeEU2jS1r51-1" style="edgeStyle=orthogonalEdgeStyle;rounded=0;orthogonalLoop=1;jettySize=auto;html=1;exitX=0.5;exitY=1;exitDx=0;exitDy=0;" edge="1" parent="1" source="tGghNo-WIGV3NSE3Wc5t-11" target="tGghNo-WIGV3NSE3Wc5t-11">
          <mxGeometry relative="1" as="geometry" />
        </mxCell>
        <mxCell id="st654b6HjIeEU2jS1r51-2" value="" style="endArrow=classic;html=1;rounded=0;exitX=0.5;exitY=0;exitDx=0;exitDy=0;entryX=0.5;entryY=1;entryDx=0;entryDy=0;" edge="1" parent="1" source="tGghNo-WIGV3NSE3Wc5t-3" target="tGghNo-WIGV3NSE3Wc5t-16">
          <mxGeometry width="50" height="50" relative="1" as="geometry">
            <mxPoint x="484" y="390" as="sourcePoint" />
            <mxPoint x="534" y="340" as="targetPoint" />
          </mxGeometry>
        </mxCell>
        <mxCell id="st654b6HjIeEU2jS1r51-3" value="Insufficient stock" style="text;html=1;strokeColor=none;fillColor=none;align=center;verticalAlign=middle;whiteSpace=wrap;rounded=0;" vertex="1" parent="1">
          <mxGeometry x="454" y="340" width="60" height="30" as="geometry" />
        </mxCell>
        <mxCell id="st654b6HjIeEU2jS1r51-8" style="edgeStyle=orthogonalEdgeStyle;rounded=0;orthogonalLoop=1;jettySize=auto;html=1;exitX=0.5;exitY=1;exitDx=0;exitDy=0;" edge="1" parent="1" source="tGghNo-WIGV3NSE3Wc5t-9" target="tGghNo-WIGV3NSE3Wc5t-9">
          <mxGeometry relative="1" as="geometry" />
        </mxCell>
        <mxCell id="st654b6HjIeEU2jS1r51-13" value="Billing and Payment" style="rounded=1;whiteSpace=wrap;html=1;fontSize=14;" vertex="1" parent="1">
          <mxGeometry x="679" y="317.5" width="105" height="55" as="geometry" />
        </mxCell>
        <mxCell id="st654b6HjIeEU2jS1r51-17" value="" style="endArrow=classic;html=1;rounded=0;strokeWidth=2;entryX=0;entryY=0.5;entryDx=0;entryDy=0;" edge="1" parent="1" target="st654b6HjIeEU2jS1r51-13">
          <mxGeometry width="50" height="50" relative="1" as="geometry">
            <mxPoint x="579" y="345" as="sourcePoint" />
            <mxPoint x="609" y="390" as="targetPoint" />
          </mxGeometry>
        </mxCell>
        <mxCell id="st654b6HjIeEU2jS1r51-18" value="" style="endArrow=none;html=1;rounded=0;strokeWidth=2;exitX=1;exitY=0.5;exitDx=0;exitDy=0;" edge="1" parent="1" source="tGghNo-WIGV3NSE3Wc5t-3">
          <mxGeometry width="50" height="50" relative="1" as="geometry">
            <mxPoint x="509" y="410" as="sourcePoint" />
            <mxPoint x="579" y="350" as="targetPoint" />
            <Array as="points">
              <mxPoint x="579" y="430" />
            </Array>
          </mxGeometry>
        </mxCell>
        <mxCell id="st654b6HjIeEU2jS1r51-19" value="" style="endArrow=none;html=1;rounded=0;strokeWidth=2;exitX=1;exitY=0.5;exitDx=0;exitDy=0;" edge="1" parent="1">
          <mxGeometry width="50" height="50" relative="1" as="geometry">
            <mxPoint x="504" y="270" as="sourcePoint" />
            <mxPoint x="579" y="350" as="targetPoint" />
            <Array as="points">
              <mxPoint x="579" y="270" />
            </Array>
          </mxGeometry>
        </mxCell>
        <mxCell id="st654b6HjIeEU2jS1r51-20" value="" style="endArrow=classic;html=1;rounded=0;strokeWidth=2;exitX=1;exitY=0.5;exitDx=0;exitDy=0;entryX=0;entryY=0.5;entryDx=0;entryDy=0;" edge="1" parent="1" source="st654b6HjIeEU2jS1r51-13" target="st654b6HjIeEU2jS1r51-21">
          <mxGeometry width="50" height="50" relative="1" as="geometry">
            <mxPoint x="859" y="400" as="sourcePoint" />
            <mxPoint x="859" y="345" as="targetPoint" />
          </mxGeometry>
        </mxCell>
        <mxCell id="st654b6HjIeEU2jS1r51-21" value="Delivery Status" style="rounded=1;whiteSpace=wrap;html=1;fontSize=14;" vertex="1" parent="1">
          <mxGeometry x="921.5" y="317.5" width="105" height="55" as="geometry" />
        </mxCell>
        <mxCell id="st654b6HjIeEU2jS1r51-22" value="" style="endArrow=classic;html=1;rounded=0;strokeWidth=2;exitX=1;exitY=0.5;exitDx=0;exitDy=0;entryX=0;entryY=0.5;entryDx=0;entryDy=0;" edge="1" parent="1" source="st654b6HjIeEU2jS1r51-21" target="st654b6HjIeEU2jS1r51-23">
          <mxGeometry width="50" height="50" relative="1" as="geometry">
            <mxPoint x="1119" y="340" as="sourcePoint" />
            <mxPoint x="1149" y="345" as="targetPoint" />
          </mxGeometry>
        </mxCell>
        <mxCell id="st654b6HjIeEU2jS1r51-23" value="Customer Order Update" style="rounded=1;whiteSpace=wrap;html=1;fontSize=14;" vertex="1" parent="1">
          <mxGeometry x="1209" y="317.5" width="105" height="55" as="geometry" />
        </mxCell>
        <mxCell id="st654b6HjIeEU2jS1r51-24" value="Customer Review" style="rounded=1;whiteSpace=wrap;html=1;fontSize=14;" vertex="1" parent="1">
          <mxGeometry x="1209" y="227.5" width="105" height="55" as="geometry" />
        </mxCell>
        <mxCell id="st654b6HjIeEU2jS1r51-25" value="Promotion" style="rounded=1;whiteSpace=wrap;html=1;fontSize=14;" vertex="1" parent="1">
          <mxGeometry x="1209" y="405" width="105" height="55" as="geometry" />
        </mxCell>
        <mxCell id="st654b6HjIeEU2jS1r51-27" value="" style="endArrow=classic;html=1;rounded=0;strokeWidth=2;entryX=0;entryY=0.5;entryDx=0;entryDy=0;" edge="1" parent="1" target="st654b6HjIeEU2jS1r51-25">
          <mxGeometry width="50" height="50" relative="1" as="geometry">
            <mxPoint x="1099" y="350" as="sourcePoint" />
            <mxPoint x="1229" y="330" as="targetPoint" />
            <Array as="points">
              <mxPoint x="1099" y="433" />
            </Array>
          </mxGeometry>
        </mxCell>
        <mxCell id="st654b6HjIeEU2jS1r51-28" value="" style="endArrow=classic;html=1;rounded=0;strokeWidth=2;entryX=0;entryY=0.5;entryDx=0;entryDy=0;" edge="1" parent="1">
          <mxGeometry width="50" height="50" relative="1" as="geometry">
            <mxPoint x="1099" y="350" as="sourcePoint" />
            <mxPoint x="1209" y="254.47" as="targetPoint" />
            <Array as="points">
              <mxPoint x="1099" y="254" />
            </Array>
          </mxGeometry>
        </mxCell>
        <mxCell id="st654b6HjIeEU2jS1r51-32" value="" style="endArrow=classic;html=1;rounded=0;strokeWidth=2;entryX=0.5;entryY=1;entryDx=0;entryDy=0;exitX=0.5;exitY=1;exitDx=0;exitDy=0;" edge="1" parent="1" source="st654b6HjIeEU2jS1r51-25" target="tGghNo-WIGV3NSE3Wc5t-4">
          <mxGeometry width="50" height="50" relative="1" as="geometry">
            <mxPoint x="530" y="400" as="sourcePoint" />
            <mxPoint x="580" y="350" as="targetPoint" />
            <Array as="points">
              <mxPoint x="1262" y="520" />
              <mxPoint x="-47" y="520" />
            </Array>
          </mxGeometry>
        </mxCell>
      </root>
    </mxGraphModel>
  </diagram>
</mxfile>
